# AST/ASF file generated using VICON BodyLanguage
# -----------------------------------------------
:version 1.10
:name VICON
:units
  mass 1.0
  length 0.45
  angle deg
:documentation
   .ast/.asf automatically generated from VICON data using
   VICON BodyBuilder and BodyLanguage model FoxedUp or BRILLIANT.MOD
:root
   order TX TY TZ RX RY RZ
   axis XYZ
   position 0 0 0  
   orientation 0 0 0 
:bonedata
  begin
     id 1 
     name lhipjoint
     direction 0.589753 -0.68606 0.426044 
     length 2.54082 
     axis 0 0 0  XYZ
  end
  begin
     id 2 
     name lfemur
     direction 0.34202 -0.939693 0  
     length 7.04539  
     axis 0 0 20  XYZ
    dof rx ry rz
    limits (-160.0 20.0)
           (-70.0 70.0)
           (-60.0 70.0)
  end
  begin
     id 3 
     name ltibia
     direction 0.34202 -0.939693 0   
     length 7.83772   
     axis 0 0 20   XYZ
    dof rx
    limits (-10.0 170.0)
  end
  begin
     id 4 
     name lfoot
     direction 0.0596604 -0.163915 0.984669   
     length 2.39542   
     axis -90 7.62852e-016 20   XYZ
    dof rx rz
    limits (-45.0 90.0)
           (-70.0 20.0)
  end
  begin
     id 5 
     name ltoes
     direction 1.53514e-011 -4.21954e-011 1   
     length 1.2047   
     axis -90 7.62852e-016 20   XYZ
    dof rx
    limits (-90.0 20.0)
  end
  begin
     id 6 
     name rhipjoint
     direction -0.580585 -0.69168 0.429534   
     length 2.52018  
     axis 0 0 0  XYZ 
  end
  begin
     id 7 
     name rfemur
     direction -0.34202 -0.939693 0   
     length 7.0101   
     axis 0 0 -20   XYZ
    dof rx ry rz
    limits (-160.0 20.0)
           (-70.0 70.0)
           (-70.0 60.0)
  end
  begin
     id 8 
     name rtibia
     direction -0.34202 -0.939693 0   
     length 7.70628   
     axis 0 0 -20   XYZ
    dof rx
    limits (-10.0 170.0)
 end
 begin
     id 9 
     name rfoot
     direction -0.0696237 -0.19129 0.979061   
     length 2.52466  
     axis -90 -7.62852e-016 -20   XYZ
    dof rx rz
    limits (-45.0 90.0)
           (-20.0 70.0)
  end
  begin
     id 10 
     name rtoes
     direction -1.53519e-011 -4.21793e-011 1   
     length 1.266   
     axis -90 -7.62852e-016 -20   XYZ
    dof rx
    limits (-90.0 20.0)
  end
  begin
     id 11 
     name lowerback
     direction 0.00381965 0.995707 -0.0924856   
     length 2.20825   
     axis 0 0 0   XYZ
    dof rx ry rz
    limits (-20.0 45.0)
           (-30.0 30.0)
           (-30.0 30.0)
  end
  begin
     id 12 
     name upperback
     direction -0.0139043 0.999634 -0.0231929   
     length 2.21517   
     axis 0 0 0   XYZ
    dof rx ry rz
    limits (-20.0 45.0)
           (-30.0 30.0)
           (-30.0 30.0)
  end
  begin
     id 13 
     name thorax
     direction -0.0143933 0.999691 0.0202892   
     length 2.22911   
     axis 0 0 0   XYZ
    dof rx ry rz
    limits (-20.0 45.0)
           (-30.0 30.0)
           (-30.0 30.0)
  end
  begin
     id 14 
     name lowerneck
     direction -0.0251153 0.981819 0.188153   
     length 1.61782   
     axis 0 0 0   XYZ
    dof rx ry rz
    limits (-20.0 45.0)
           (-30.0 30.0)
           (-30.0 30.0)
  end
  begin
     id 15 
     name upperneck
     direction 0.0563891 0.969357 -0.239095   
     length 1.64526   
     axis 0 0 0   XYZ
    dof rx ry rz
    limits (-20.0 45.0)
           (-30.0 30.0)
           (-30.0 30.0)
  end
  begin
     id 16
     name head
     direction 0.0208328 0.99459 -0.101773  
     length 1.67436  
     axis 0 0 0   XYZ
    dof rx ry rz
    limits (-20.0 45.0)
           (-30.0 30.0)
           (-30.0 30.0)
  end
  begin
     id 17 
     name lclavicle
     direction 0.917689 0.397224 0.00772059  
     length 3.31102  
     axis 0 0 0   XYZ
    dof ry rz
    limits (-20.0 10.0)
           (0.0 20.0)
  end
  begin
     id 18 
     name lhumerus
     direction 1 -4.4896e-011 2.32308e-027   
     length 5.25537   
     axis 180 -30 -90   XYZ
    dof rx ry rz
    limits (-60.0 90.0)
           (-90.0 90.0)
           (-90.0 90.0)
  end
  begin
     id 19
     name lradius
     direction 1 -4.49005e-011 -2.04271e-027   
     length 3.38855   
     axis 180 -30 -90   XYZ
    dof rx
    limits (-10.0 170.0)
  end
  begin
     id 20
     name lwrist
     direction 1 -4.48892e-011 2.56952e-028   
     length 1.69428   
     axis -5.12785e-016 90 90   XYZ
    dof ry
    limits (-180.0 0.0)
 end
  begin
     id 21 
     name lhand
     direction 1 -4.48966e-011 5.13905e-028   
     length 0.614516   
     axis -3.27915e-016 90 90   XYZ
    dof rx rz
    limits (-90.0 90.0)
           (-45.0 45.0)
  end
  begin
     id 22 
     name lfingers
     direction 1 -4.48979e-011 1.02781e-027   
     length 0.495439   
     axis -6.5583e-016 90 90   XYZ
    dof rx
    limits (0.0 90.0)
  end
  begin
     id 23
     name lthumb
     direction 0.707107 -6.35001e-011 0.707107   
     length 0.711354   
     axis -90 45 2.85299e-015   XYZ
    dof rx rz
    limits (-45.0 45.0)
           (-45.0 45.0)
  end
  begin
     id 24 
     name rclavicle
     direction -0.938556 0.342765 -0.0403177   
     length 3.27019  
     axis 0 0 0   XYZ 
    dof ry rz
    limits (-10.0 20.0)
           (-20.0 0.0)
  end
  begin
     id 25 
     name rhumerus
     direction -1 -4.48966e-011 2.52291e-027  
     length 5.38183   
     axis 180 30 90   XYZ
    dof rx ry rz
    limits (-90.0 60.0)
           (-90.0 90.0)
           (-90.0 90.0)
  end
  begin
     id 26 
     name rradius
     direction -1 -4.4896e-011 1.5797e-027   
     length 3.16988   
     axis 180 30 90   XYZ
    dof rx
    limits (-10.0 170.0)
  end
  begin
     id 27 
     name rwrist
     direction -1 -4.48947e-011 2.56952e-028   
     length 1.58494   
     axis -5.12785e-016 -90 -90   XYZ
    dof ry
    limits (-180.0 0.0)
  end
  begin
     id 28
     name rhand
     direction -1 -4.49098e-011 5.13905e-028   
     length 0.637679   
     axis -3.27915e-016 -90 -90   XYZ
    dof rx rz
    limits (-90.0 90.0)
           (-45.0 45.0)
  end
  begin
     id 29
     name rfingers
     direction -1 -4.49026e-011 1.02781e-027   
     length 0.514113   
     axis -6.5583e-016 -90 -90   XYZ
    dof rx
    limits (0.0 90.0)
  end
  begin
     id 30
     name rthumb
     direction -0.707107 -6.3491e-011 0.707107   
     length 0.738167   
     axis -90 -45 -2.85299e-015   XYZ
    dof rx rz
    limits (-45.0 45.0)
           (-45.0 45.0)
  end
:hierarchy
  begin
    root lhipjoint rhipjoint lowerback
    lhipjoint lfemur
    lfemur ltibia
    ltibia lfoot
    lfoot ltoes
    rhipjoint rfemur
    rfemur rtibia
    rtibia rfoot
    rfoot rtoes
    lowerback upperback
    upperback thorax
    thorax lowerneck lclavicle rclavicle
    lowerneck upperneck
    upperneck head
    lclavicle lhumerus
    lhumerus lradius
    lradius lwrist
    lwrist lhand lthumb
    lhand lfingers
    rclavicle rhumerus
    rhumerus rradius
    rradius rwrist
    rwrist rhand rthumb
    rhand rfingers
  end

#!OML:ASF H:\Swim\Project 1\Capture day 1\Session 1\swimmer.ASF
:FULLY-SPECIFIED
:DEGREES
331
root 7.9639 15.5222 29.7042 -177.074 -8.44224 178.42
lowerback 11.0848 -0.687464 0.689144
upperback 3.5529 -1.21503 -1.45742
thorax -2.5521 -0.739925 -1.73534
lowerneck -30.2456 -4.38557 -7.51137
upperneck 14.3466 -5.17035 9.65589
head 9.90169 -1.7135 3.7984
rclavicle 3.47376e-014 -1.70955e-014
rhumerus 37.7926 -13.0303 -60.772
rradius 71.7955
rwrist 7.84557
rhand 43.127 -6.32914
rfingers 7.12502
rthumb 64.9311 -13.6203
lclavicle 3.47376e-014 -1.70955e-014
lhumerus 34.3458 8.54684 51.0044
lradius 76.4614
lwrist -7.0724
lhand 43.2873 11.7605
lfingers 7.12502
lthumb 65.0577 18.841
rfemur -25.7066 -14.47 5.94039
rtibia 52.2321
rfoot -19.5171 -17.6678
rtoes -11.2571
lfemur -30.9985 3.50272 -11.3449
ltibia 53.7943
lfoot -19.8126 7.4578
ltoes -11.0983
332
root 7.96417 15.5219 29.7038 -177.07 -8.45683 178.411
lowerback 11.101 -0.697279 0.682114
upperback 3.55439 -1.22944 -1.45956
thorax -2.55987 -0.74736 -1.73147
lowerneck -30.1648 -4.54944 -7.64197
upperneck 14.2308 -5.35823 9.74324
head 9.8718 -1.80211 3.81631
rclavicle 6.95746e-016 5.56597e-015
rhumerus 37.8415 -13.0334 -60.7833
rradius 71.8219
rwrist 7.81791
rhand 43.0166 -6.36383
rfingers 7.12502
rthumb 64.8436 -13.7989
lclavicle 6.95746e-016 5.56597e-015
lhumerus 34.3635 8.5706 50.9826
lradius 76.4651
lwrist -7.05349
lhand 43.2408 11.7678
lfingers 7.12502
lthumb 65.0211 18.9095
rfemur -25.7095 -14.4729 5.9309
rtibia 52.2459
rfoot -19.5274 -17.6695
rtoes -11.182
lfemur -31.0059 3.49664 -11.3543
ltibia 53.7965
lfoot -19.8135 7.45107
ltoes -11.1069
333
root 7.96447 15.521 29.7035 -177.065 -8.47273 178.403
lowerback 11.1158 -0.707503 0.676645
upperback 3.5562 -1.24422 -1.46177
thorax -2.56657 -0.754963 -1.72853
lowerneck -30.083 -4.7028 -7.76254
upperneck 14.1201 -5.53476 9.82363
head 9.84242 -1.88567 3.83217
rclavicle -1.10325e-014 2.06736e-014
rhumerus 37.8946 -13.0409 -60.8002
rradius 71.8484
rwrist 7.78675
rhand 42.9069 -6.40583
rfingers 7.12502
rthumb 64.7566 -13.9827
lclavicle -1.10325e-014 2.06736e-014
lhumerus 34.384 8.59852 50.9686
lradius 76.4701
lwrist -7.03078
lhand 43.1881 11.7941
lfingers 7.12502
lthumb 64.9794 19.0052
rfemur -25.7162 -14.4765 5.92199
rtibia 52.2677
rfoot -19.5419 -17.6715
rtoes -11.0984
lfemur -31.0175 3.49081 -11.3618
ltibia 53.8068
lfoot -19.8206 7.43944
ltoes -11.0978
334
root 7.96481 15.5196 29.7031 -177.062 -8.48925 178.395
lowerback 11.1294 -0.717741 0.671028
upperback 3.55807 -1.25898 -1.46329
thorax -2.57251 -0.762537 -1.72479
lowerneck -29.9978 -4.84638 -7.8766
upperneck 14.0112 -5.69988 9.89899
head 9.812 -1.96426 3.84719
rclavicle 1.40143e-014 6.16232e-015
rhumerus 37.9513 -13.0515 -60.8243
rradius 71.8753
rwrist 7.75493
rhand 42.8037 -6.45042
rfingers 7.12502
rthumb 64.6746 -14.16
lclavicle 1.40143e-014 6.16232e-015
lhumerus 34.407 8.62999 50.9641
lradius 76.4747
lwrist -7.00902
lhand 43.126 11.8308
lfingers 7.12502
lthumb 64.9303 19.1233
rfemur -25.7273 -14.4809 5.91312
rtibia 52.2978
rfoot -19.5592 -17.6742
rtoes -11.0166
lfemur -31.0335 3.48557 -11.3684
ltibia 53.826
lfoot -19.8292 7.43018
ltoes -11.1044
335
root 7.96511 15.5176 29.7028 -177.057 -8.50562 178.387
lowerback 11.1391 -0.727521 0.664527
upperback 3.55959 -1.2731 -1.4647
thorax -2.57667 -0.769738 -1.72058
lowerneck -29.9066 -4.97961 -7.98315
upperneck 13.9032 -5.85303 9.96817
head 9.77971 -2.03776 3.8609
rclavicle 3.35449e-014 -2.10712e-014
rhumerus 38.0068 -13.0634 -60.8508
rradius 71.9019
rwrist 7.71465
rhand 42.7073 -6.48421
rfingers 7.12502
rthumb 64.5979 -14.3167
lclavicle 3.35449e-014 -2.10712e-014
lhumerus 34.4299 8.66179 50.9669
lradius 76.4791
lwrist -6.98878
lhand 43.0425 11.8764
lfingers 7.12502
lthumb 64.8642 19.2778
rfemur -25.7437 -14.4869 5.90293
rtibia 52.3356
rfoot -19.5792 -17.6768
rtoes -10.9376
lfemur -31.0547 3.48147 -11.3761
ltibia 53.8543
lfoot -19.8391 7.4253
ltoes -11.1267
336
root 7.96536 15.5152 29.7025 -177.053 -8.52096 178.382
lowerback 11.1474 -0.737487 0.662497
upperback 3.55917 -1.28669 -1.4651
thorax -2.5821 -0.776572 -1.71793
lowerneck -29.8113 -5.10256 -8.08353
upperneck 13.7989 -5.99371 10.0309
head 9.74664 -2.10589 3.87359
rclavicle 3.86636e-014 -2.22639e-014
rhumerus 38.0597 -13.0728 -60.881
rradius 71.9274
rwrist 7.67165
rhand 42.6129 -6.50323
rfingers 7.12502
rthumb 64.5226 -14.4554
lclavicle 3.86636e-014 -2.22639e-014
lhumerus 34.4496 8.69311 50.9759
lradius 76.484
lwrist -6.97313
lhand 42.9533 11.9362
lfingers 7.12502
lthumb 64.7935 19.4533
rfemur -25.7661 -14.493 5.89679
rtibia 52.3808
rfoot -19.5978 -17.6831
rtoes -10.883
lfemur -31.0821 3.47968 -11.3797
ltibia 53.8916
lfoot -19.8492 7.42181
ltoes -11.1634
337
root 7.96553 15.5124 29.7021 -177.048 -8.5375 178.379
lowerback 11.1525 -0.748433 0.663821
upperback 3.55799 -1.30102 -1.46507
thorax -2.58665 -0.783699 -1.71664
lowerneck -29.7173 -5.21634 -8.18019
upperneck 13.701 -6.1229 10.0899
head 9.71498 -2.16876 3.88648
rclavicle 1.04362e-014 2.28602e-014
rhumerus 38.1087 -13.0789 -60.9128
rradius 71.9526
rwrist 7.62118
rhand 42.5183 -6.50429
rfingers 7.12502
rthumb 64.4469 -14.5758
lclavicle 1.04362e-014 2.28602e-014
lhumerus 34.4662 8.72395 50.9899
lradius 76.4903
lwrist -6.96573
lhand 42.8413 11.9781
lfingers 7.12502
lthumb 64.7045 19.6394
rfemur -25.7922 -14.5022 5.89176
rtibia 52.4324
rfoot -19.6153 -17.6901
rtoes -10.8466
lfemur -31.1151 3.47775 -11.3818
ltibia 53.9362
lfoot -19.86 7.42109
ltoes -11.2151
338
root 7.96557 15.5091 29.7017 -177.042 -8.55249 178.375
lowerback 11.1565 -0.759206 0.666906
upperback 3.55547 -1.31479 -1.46553
thorax -2.59203 -0.790491 -1.71694
lowerneck -29.6306 -5.32143 -8.27329
upperneck 13.6152 -6.2411 10.1452
head 9.6876 -2.22634 3.89959
rclavicle -1.61513e-014 2.10712e-014
rhumerus 38.153 -13.0799 -60.9451
rradius 71.9763
rwrist 7.56438
rhand 42.4235 -6.49326
rfingers 7.12502
rthumb 64.3712 -14.6835
lclavicle -1.61513e-014 2.10712e-014
lhumerus 34.4778 8.75186 51.0074
lradius 76.4986
lwrist -6.96469
lhand 42.7011 11.9754
lfingers 7.12502
lthumb 64.5929 19.8158
rfemur -25.8218 -14.5132 5.88507
rtibia 52.4899
rfoot -19.6314 -17.6973
rtoes -10.8291
lfemur -31.1521 3.4783 -11.3849
ltibia 53.9874
lfoot -19.8735 7.41838
ltoes -11.263
339
root 7.96558 15.5056 29.7012 -177.036 -8.5665 178.369
lowerback 11.1599 -0.769291 0.669978
upperback 3.55181 -1.32761 -1.4675
thorax -2.59823 -0.796776 -1.71893
lowerneck -29.5509 -5.41586 -8.35576
upperneck 13.5441 -6.34755 10.1918
head 9.6649 -2.27835 3.9102
rclavicle 3.42904e-015 -1.88845e-014
rhumerus 38.1911 -13.0778 -60.9773
rradius 71.9982
rwrist 7.50729
rhand 42.316 -6.47729
rfingers 7.12502
rthumb 64.285 -14.8014
lclavicle 3.42904e-015 -1.88845e-014
lhumerus 34.4849 8.77366 51.0262
lradius 76.5081
lwrist -6.9689
lhand 42.5372 11.9126
lfingers 7.12502
lthumb 64.4621 19.9604
rfemur -25.8529 -14.5257 5.87548
rtibia 52.5525
rfoot -19.6492 -17.7026
rtoes -10.8194
lfemur -31.1904 3.48157 -11.3901
ltibia 54.0429
lfoot -19.8888 7.41485
ltoes -11.3196
340
root 7.96556 15.5018 29.7007 -177.032 -8.5771 178.362
lowerback 11.162 -0.777656 0.672677
upperback 3.54945 -1.33833 -1.47003
thorax -2.60235 -0.802055 -1.7216
lowerneck -29.4812 -5.5016 -8.43395
upperneck 13.4845 -6.44385 10.2376
head 9.64685 -2.32504 3.92178
rclavicle 4.07509e-015 -7.95139e-015
rhumerus 38.2271 -13.0746 -61.0103
rradius 72.0174
rwrist 7.45328
rhand 42.228 -6.45547
rfingers 7.12502
rthumb 64.2144 -14.8884
lclavicle 4.07509e-015 -7.95139e-015
lhumerus 34.4898 8.7908 51.0445
lradius 76.5182
lwrist -6.97562
lhand 42.3551 11.7819
lfingers 7.12502
lthumb 64.3163 20.0574
rfemur -25.8859 -14.5355 5.86424
rtibia 52.6187
rfoot -19.6653 -17.7084
rtoes -10.8217
lfemur -31.2285 3.48961 -11.3961
ltibia 54.101
lfoot -19.9072 7.40883
ltoes -11.375
341
root 7.96551 15.4978 29.7002 -177.028 -8.58609 178.355
lowerback 11.1644 -0.785172 0.675035
upperback 3.54754 -1.34807 -1.47333
thorax -2.60611 -0.80687 -1.725
lowerneck -29.4242 -5.57673 -8.50159
upperneck 13.4415 -6.52843 10.2759
head 9.63503 -2.36588 3.93124
rclavicle 2.70844e-014 -9.93923e-016
rhumerus 38.2588 -13.0685 -61.0434
rradius 72.033
rwrist 7.40538
rhand 42.1799 -6.41602
rfingers 7.12502
rthumb 64.1757 -14.9081
lclavicle 2.70844e-014 -9.93923e-016
lhumerus 34.492 8.80183 51.0631
lradius 76.528
lwrist -6.98126
lhand 42.182 11.6358
lfingers 7.12502
lthumb 64.1774 20.1253
rfemur -25.9191 -14.5445 5.85115
rtibia 52.6882
rfoot -19.6845 -17.7127
rtoes -10.8212
lfemur -31.2651 3.49934 -11.4026
ltibia 54.1611
lfoot -19.9301 7.3974
ltoes -11.4128
342
root 7.96545 15.4939 29.6997 -177.028 -8.59297 178.349
lowerback 11.1666 -0.791209 0.678884
upperback 3.54842 -1.35589 -1.4758
thorax -2.6068 -0.810819 -1.72867
lowerneck -29.3797 -5.64301 -8.56068
upperneck 13.41 -6.60301 10.3086
head 9.62778 -2.4017 3.93914
rclavicle 2.66371e-014 2.78299e-015
rhumerus 38.2887 -13.0625 -61.0742
rradius 72.0453
rwrist 7.36557
rhand 42.1487 -6.37908
rfingers 7.12502
rthumb 64.1506 -14.9095
lclavicle 2.66371e-014 2.78299e-015
lhumerus 34.4962 8.8087 51.085
lradius 76.536
lwrist -6.98597
lhand 42.011 11.499
lfingers 7.12502
lthumb 64.0398 20.1975
rfemur -25.95 -14.551 5.84031
rtibia 52.7583
rfoot -19.7006 -17.7201
rtoes -10.8334
lfemur -31.2967 3.5114 -11.4065
ltibia 54.2211
lfoot -19.9561 7.38246
ltoes -11.4515
343
root 7.96534 15.4897 29.6992 -177.031 -8.59823 178.344
lowerback 11.1659 -0.795965 0.682901
upperback 3.55203 -1.3622 -1.47817
thorax -2.60305 -0.814073 -1.7326
lowerneck -29.3423 -5.69965 -8.6069
upperneck 13.3875 -6.66768 10.3322
head 9.62305 -2.43285 3.94359
rclavicle 2.43511e-014 4.77083e-015
rhumerus 38.3151 -13.0549 -61.101
rradius 72.0525
rwrist 7.3308
rhand 42.1343 -6.34678
rfingers 7.12502
rthumb 64.1391 -14.8948
lclavicle 2.43511e-014 4.77083e-015
lhumerus 34.5007 8.81008 51.1074
lradius 76.5422
lwrist -6.98659
lhand 41.8535 11.3847
lfingers 7.12502
lthumb 63.9127 20.2739
rfemur -25.9801 -14.5568 5.82909
rtibia 52.8299
rfoot -19.7163 -17.7279
rtoes -10.857
lfemur -31.326 3.52404 -11.4093
ltibia 54.2824
lfoot -19.9836 7.3676
ltoes -11.4965
344
root 7.96522 15.4855 29.6987 -177.036 -8.60387 178.339
lowerback 11.1656 -0.800244 0.687757
upperback 3.5572 -1.36795 -1.48071
thorax -2.59785 -0.817102 -1.73727
lowerneck -29.3151 -5.74757 -8.64125
upperneck 13.3789 -6.7234 10.3473
head 9.62322 -2.45959 3.94476
rclavicle 8.15017e-015 -1.68967e-014
rhumerus 38.3354 -13.0448 -61.126
rradius 72.0543
rwrist 7.306
rhand 42.1256 -6.32046
rfingers 7.12502
rthumb 64.132 -14.8792
lclavicle 8.15017e-015 -1.68967e-014
lhumerus 34.5043 8.80566 51.1313
lradius 76.5462
lwrist -6.9821
lhand 41.7464 11.3432
lfingers 7.12502
lthumb 63.8261 20.3609
rfemur -26.0059 -14.563 5.81803
rtibia 52.8996
rfoot -19.7285 -17.7391
rtoes -10.898
lfemur -31.3512 3.53521 -11.4107
ltibia 54.3433
lfoot -20.0132 7.34963
ltoes -11.5301
